<?xml version="1.0" encoding="utf-8"?>
<!-- Svg Vector Icons : http://www.onlinewebfonts.com/icon -->
<!DOCTYPE svg PUBLIC "-//W3C//DTD SVG 1.1//EN" "http://www.w3.org/Graphics/SVG/1.1/DTD/svg11.dtd">
<svg version="1.1" xmlns="http://www.w3.org/2000/svg" xmlns:xlink="http://www.w3.org/1999/xlink" x="0px" y="0px" viewBox="0 0 256 256" enable-background="new 0 0 256 256" xml:space="preserve">
<metadata> Svg Vector Icons : http://www.onlinewebfonts.com/icon </metadata>
<g><g><g><path fill="#000000" d="M32.2,32.3L10,54.5V128v73.5l22.3,22.3L54.5,246H128h73.5l22.3-22.3l22.2-22.2V128V54.5l-22.3-22.3L201.5,10H128H54.5L32.2,32.3z M209.2,46.7l22,22V128v59.2l-22,22l-22,22H128H68.8l-22-22l-22-22V128V68.8l22-22l22-22H128h59.2L209.2,46.7z"/><path fill="#000000" d="M57.3,57.4L39.5,75.2V128v52.8l17.8,17.8l17.9,17.9H128h52.8l17.9-17.9l17.8-17.8V128V75.2l-17.9-17.9l-17.8-17.8H128H75.2L57.3,57.4z M139.3,70.2c0.7,0.5,1.7,1.5,2.2,2.2c1,1.2,1,1.7,1,33.5s0,32.2-1,33.5c-2.4,3.1-2.4,3.2-13.6,3.2c-11.1,0-11.2,0-13.6-3.2c-1-1.2-1-1.8-1.1-32.2c-0.1-17.1,0-31.6,0.1-32.5c0.1-0.8,0.8-2.2,1.5-3c2.2-2.5,3.1-2.7,13.6-2.6C137.4,69.2,138.2,69.3,139.3,70.2z M139.3,158.7c3.1,2.4,3.2,2.4,3.2,13.6s0,11.2-3.2,13.6c-1.2,0.9-1.9,1-11.3,1s-10.1,0-11.3-1c-3.1-2.3-3.2-2.6-3.3-12.3c-0.2-10.2,0-11.3,1.6-13.3c2.2-2.5,3.1-2.7,13.6-2.6C137.4,157.7,138.2,157.8,139.3,158.7z"/></g></g></g>
</svg>