<?xml version="1.0" encoding="UTF-8"?>
<svg version="1.1" xmlns="http://www.w3.org/2000/svg" width="577" height="433">
<path d="M0 0 C1.53764431 0.07794566 3.07544716 0.15283624 4.61340332 0.22436523 C26.68584178 1.28316154 26.68584178 1.28316154 32.34307861 6.49377441 C33.27991543 8.11522275 34.21147428 9.73979733 35.12823486 11.37268066 C37.50124669 15.75705038 37.50124669 15.75705038 41.53057861 18.36877441 C43.8984376 18.39915795 43.8984376 18.39915795 45.85113525 17.82214355 C48.03469334 17.29004135 50.0339401 17.10184481 52.27667236 16.98986816 C53.10747314 16.94797363 53.93827393 16.9060791 54.79425049 16.86291504 C56.08685791 16.80394043 56.08685791 16.80394043 57.40557861 16.74377441 C58.23251221 16.70059082 59.0594458 16.65740723 59.91143799 16.61291504 C71.97122589 16.03160927 83.98664736 16.29722745 96.03570557 16.94104004 C97.54086844 17.01830343 99.04644425 17.08788026 100.55230713 17.15002441 C117.99701752 17.87319928 117.99701752 17.87319928 125.02545166 24.14099121 C128.33797281 27.83318049 129.76782432 32.30868078 131.59307861 36.86877441 C131.98753174 37.80785645 132.38198486 38.74693848 132.78839111 39.71447754 C135.40915698 46.16457191 136.9927743 52.4161943 137.96807861 59.30627441 C138.62807861 59.30627441 139.28807861 59.30627441 139.96807861 59.30627441 C139.96807861 59.96627441 139.96807861 60.62627441 139.96807861 61.30627441 C140.62807861 61.30627441 141.28807861 61.30627441 141.96807861 61.30627441 C141.92167236 60.70299316 141.87526611 60.09971191 141.82745361 59.47814941 C141.5363204 53.03162822 141.5363204 53.03162822 143.53057861 49.68127441 C147.0584542 47.69119075 149.11194472 48.29150234 152.96807861 49.30627441 C156.04674704 50.84560863 158.96764973 52.46355969 160.96807861 55.30627441 C161.28057861 58.36877441 161.28057861 58.36877441 160.96807861 61.30627441 C158.50506439 63.76928864 156.69447826 64.07393962 153.34307861 64.93127441 C152.34018799 65.19166504 151.33729736 65.45205566 150.30401611 65.72033691 C149.53315674 65.91369629 148.76229736 66.10705566 147.96807861 66.30627441 C148.35479736 66.7535791 148.74151611 67.20088379 149.13995361 67.66174316 C150.22365012 68.91979678 151.30284649 70.18173662 152.37823486 71.44689941 C153.61756843 72.89634112 154.88184322 74.32446926 156.15557861 75.74377441 C161.88839258 83.84878727 161.38071628 92.38676988 161.29620361 101.89221191 C161.29314147 103.40056164 161.29126882 104.9089142 161.29052734 106.41726685 C161.28594637 109.56251009 161.27159918 112.70749414 161.24932861 115.85266113 C161.22090148 119.8878819 161.2101 123.92290047 161.20564651 127.9582119 C161.20149731 131.06537907 161.19168638 134.17250532 161.17977142 137.27965164 C161.17407074 138.76843566 161.16931137 140.25722358 161.16550446 141.74601364 C161.15865077 143.81874321 161.14502654 145.89131114 161.12921143 147.96398926 C161.11896942 149.73315201 161.11896942 149.73315201 161.10852051 151.53805542 C160.96807861 154.30627441 160.96807861 154.30627441 159.96807861 156.30627441 C159.30807861 156.30627441 158.64807861 156.30627441 157.96807861 156.30627441 C157.96807861 157.29627441 157.96807861 158.28627441 157.96807861 159.30627441 C149.09521589 160.88367223 141.13112058 161.97109146 133.42901611 156.59533691 C131.96807861 155.30627441 131.96807861 155.30627441 130.96807861 153.30627441 C114.13807861 153.30627441 97.30807861 153.30627441 79.96807861 153.30627441 C79.96807861 156.93627441 79.96807861 160.56627441 79.96807861 164.30627441 C79.31182861 167.56799316 79.31182861 167.56799316 78.46807861 169.99377441 C78.18964111 170.8226416 77.91120361 171.65150879 77.62432861 172.50549316 C77.40776611 173.09975098 77.19120361 173.69400879 76.96807861 174.30627441 C76.30807861 174.30627441 75.64807861 174.30627441 74.96807861 174.30627441 C74.96807861 174.96627441 74.96807861 175.62627441 74.96807861 176.30627441 C71.00970562 178.28546091 66.13367158 177.66618394 61.78057861 177.74377441 C60.75126221 177.78953613 59.7219458 177.83529785 58.66143799 177.88244629 C53.42240738 177.95963892 49.90617953 177.86001201 45.79229736 174.40393066 C44.10414679 172.72140981 43.03545503 171.44102724 41.96807861 169.30627441 C-4.89192139 168.97627441 -51.75192139 168.64627441 -100.03192139 168.30627441 C-100.69192139 169.62627441 -101.35192139 170.94627441 -102.03192139 172.30627441 C-105.2615626 176.07418916 -107.47518897 177.07448497 -112.33441162 177.51501465 C-115.04607067 177.62305835 -117.75614575 177.69013774 -120.46942139 177.74377441 C-121.41108154 177.78953613 -122.3527417 177.83529785 -123.32293701 177.88244629 C-130.0862499 177.99222483 -130.0862499 177.99222483 -132.77069092 176.04504395 C-137.08564746 171.03237614 -137.16575964 166.40202795 -137.09442139 160.11877441 C-137.08990967 159.36918457 -137.08539795 158.61959473 -137.08074951 157.84729004 C-137.06898493 156.00025059 -137.05105004 154.15325228 -137.03192139 152.30627441 C-144.20404563 152.32255339 -151.37513641 152.37734953 -158.54681396 152.4588623 C-160.98619892 152.4820513 -163.42568412 152.4964401 -165.86517334 152.50183105 C-169.37321513 152.51111348 -172.87967811 152.55209223 -176.38739014 152.59924316 C-177.47714645 152.59531052 -178.56690277 152.59137787 -179.68968201 152.58732605 C-185.88880391 152.63801342 -185.88880391 152.63801342 -191.0824585 155.7701416 C-191.72578125 156.60706543 -192.369104 157.44398926 -193.03192139 158.30627441 C-197.54771126 160.35268608 -201.72908121 160.65983325 -206.65692139 160.74377441 C-207.94856201 160.78373535 -209.24020264 160.82369629 -210.57098389 160.86486816 C-214.03192139 160.30627441 -214.03192139 160.30627441 -216.36785889 158.40393066 C-220.50988739 150.69353488 -220.32084961 141.86801519 -220.26239014 133.31408691 C-220.26193192 132.20572479 -220.26147369 131.09736267 -220.26100159 129.95541382 C-220.25799946 127.6309501 -220.25017502 125.30648802 -220.23773193 122.98205566 C-220.2193673 119.4207856 -220.21722333 115.85977461 -220.21746826 112.29846191 C-220.21255616 110.03283466 -220.2067292 107.76720917 -220.19989014 105.50158691 C-220.1982209 103.90626633 -220.1982209 103.90626633 -220.19651794 102.27871704 C-220.19013809 101.29023773 -220.18375824 100.30175842 -220.17718506 99.2833252 C-220.17146736 97.98287766 -220.17146736 97.98287766 -220.16563416 96.65615845 C-220.03668787 94.39004118 -219.64720149 92.48399121 -219.03192139 90.30627441 C-218.37669014 87.40457815 -218.37669014 87.40457815 -217.72723389 84.50158691 C-215.98231702 78.99235501 -213.03622244 74.81863219 -209.34442139 70.43127441 C-208.5361792 69.46447754 -207.72793701 68.49768066 -206.89520264 67.50158691 C-205.97287842 66.41490723 -205.97287842 66.41490723 -205.03192139 65.30627441 C-205.63520264 65.2688916 -206.23848389 65.23150879 -206.86004639 65.19299316 C-210.36297781 64.9048488 -213.35888214 64.60175506 -216.59442139 63.18127441 C-218.03192139 61.30627441 -218.03192139 61.30627441 -218.59442139 57.86877441 C-218.03192139 54.30627441 -218.03192139 54.30627441 -215.84442139 51.99377441 C-211.64849992 49.47622154 -208.0267651 47.51761488 -203.03192139 48.30627441 C-199.28912373 51.51438669 -199.41802137 55.67307463 -199.03192139 60.30627441 C-195.49807238 57.95037507 -195.50287117 57.27862626 -194.59442139 53.30627441 C-191.9072263 42.65445472 -187.3393477 26.79982765 -178.03192139 20.30627441 C-170.20650552 18.11940116 -162.36707402 17.67152721 -154.28192139 17.18127441 C-153.00059326 17.09490723 -151.71926514 17.00854004 -150.39910889 16.91955566 C-138.66089252 16.16954792 -127.02511831 16.14861996 -115.28192139 16.74377441 C-114.41438232 16.78309082 -113.54684326 16.82240723 -112.65301514 16.86291504 C-107.07820493 17.13455122 -101.57339221 17.63883005 -96.03192139 18.30627441 C-95.66067139 17.25439941 -95.66067139 17.25439941 -95.28192139 16.18127441 C-92.92005141 10.74897346 -90.02925909 6.56035478 -85.03192139 3.30627441 C-80.06637623 1.6327612 -75.33853753 0.92438343 -70.13348389 0.67346191 C-69.01885773 0.61084671 -69.01885773 0.61084671 -67.88171387 0.54696655 C-65.47384587 0.41532392 -63.06560245 0.29702653 -60.65692139 0.18127441 C-59.82702698 0.1395813 -58.99713257 0.09788818 -58.14208984 0.05493164 C-38.70441157 -0.91477814 -19.43829443 -0.98643135 0 0 Z M-86.03192139 11.30627441 C-90.9617043 23.45362256 -90.9617043 23.45362256 -95.34442139 35.80627441 C-95.59514404 36.53846191 -95.8458667 37.27064941 -96.10418701 38.02502441 C-97.58071874 42.45857812 -98.51235803 46.66076675 -99.03192139 51.30627441 C-90.37419635 54.01181349 -82.07082874 54.45563455 -73.04876709 54.45153809 C-71.43973763 54.456576 -71.43973763 54.456576 -69.79820251 54.4617157 C-66.26802395 54.47117872 -62.73789308 54.47316659 -59.20770264 54.47424316 C-56.73921184 54.47745937 -54.27072124 54.48082371 -51.80223083 54.48432922 C-46.63180093 54.49030916 -41.46138771 54.49217033 -36.29095459 54.49157715 C-29.69195588 54.49147568 -23.09306515 54.50511698 -16.49409199 54.52234936 C-11.39545712 54.53351331 -6.29684797 54.53549499 -1.19820213 54.53496742 C1.23325789 54.53614133 3.66471872 54.54052975 6.09616661 54.54829979 C23.63863105 54.71615225 23.63863105 54.71615225 40.96807861 52.30627441 C41.19155869 47.14651381 40.55185639 43.23180551 38.84307861 38.36877441 C38.50965454 37.41792969 38.50965454 37.41792969 38.16949463 36.44787598 C37.69349091 35.10010497 37.21199074 33.75426434 36.72540283 32.41027832 C35.94426294 30.24010952 35.1918942 28.06120112 34.44073486 25.88049316 C33.93046073 24.43857487 33.41877773 22.99715426 32.90557861 21.55627441 C32.6727417 20.87701904 32.43990479 20.19776367 32.20001221 19.4979248 C30.75465319 15.54697633 29.63288419 13.38708725 25.96807861 11.30627441 C23.45714584 10.91025791 21.15913219 10.67973309 18.63604736 10.57580566 C17.90475616 10.53547714 17.17346497 10.49514862 16.42001343 10.45359802 C13.99903197 10.32597531 11.57775863 10.22097236 9.15557861 10.11877441 C8.31707367 10.07957886 7.47856873 10.0403833 6.61465454 10 C-24.35263838 8.55682143 -55.11714583 9.11823571 -86.03192139 11.30627441 Z M41.96807861 26.30627441 C43.50195934 30.86912931 43.50195934 30.86912931 45.04156494 35.43005371 C46.32609456 39.25790248 47.45393238 43.0837424 48.46807861 46.99377441 C49.64727728 51.09029693 51.21217939 53.07303704 54.96807861 55.30627441 C56.92006661 51.27216588 57.33251806 47.60323881 57.62432861 43.19689941 C57.73776611 42.57299316 57.85120361 41.94908691 57.96807861 41.30627441 C61.169859 39.70538422 64.48576849 39.94894782 67.96807861 40.30627441 C72.57924817 41.99112483 75.52155816 44.00039842 77.96807861 48.30627441 C77.71807861 52.11877441 77.71807861 52.11877441 76.96807861 55.30627441 C70.53307861 57.28627441 70.53307861 57.28627441 63.96807861 59.30627441 C67.44109696 61.62161998 68.66779799 61.53226087 72.75299072 61.45739746 C73.94109848 61.44045334 75.12920624 61.42350922 76.35331726 61.40605164 C78.27990929 61.36246269 78.27990929 61.36246269 80.24542236 61.31799316 C81.56345352 61.2953389 82.88148468 61.27268463 84.23945618 61.24934387 C87.02961154 61.20082469 89.81951809 61.14547193 92.60943604 61.08483887 C96.18145365 61.0073962 99.75355172 60.9429709 103.32590389 60.88318157 C106.73668483 60.8251352 110.14728565 60.75899423 113.55792236 60.69299316 C114.84029282 60.67000656 116.12266327 60.64701996 117.44389343 60.62333679 C118.63515335 60.59693619 119.82641327 60.57053558 121.05377197 60.54333496 C122.10173447 60.52175827 123.14969696 60.50018158 124.22941589 60.47795105 C126.62417156 60.32783268 128.67663331 59.98819423 130.96807861 59.30627441 C130.84432861 58.04814941 130.72057861 56.79002441 130.59307861 55.49377441 C130.48866455 54.43223145 130.48866455 54.43223145 130.38214111 53.34924316 C130.0414247 51.00639299 130.0414247 51.00639299 127.96807861 48.30627441 C127.27623373 46.25874967 126.63619593 44.19343935 126.03057861 42.11877441 C124.52801234 37.0877098 122.88445208 32.19302676 120.96807861 27.30627441 C105.39658443 25.45576876 89.82070185 25.20632635 74.15557861 25.18127441 C73.41712708 25.17868622 72.67867554 25.17609802 71.91784668 25.1734314 C61.88900756 25.14573818 51.96702573 25.50562913 41.96807861 26.30627441 Z M-169.03192139 26.30627441 C-170.24404297 26.37213745 -170.24404297 26.37213745 -171.48065186 26.43933105 C-172.69132324 26.52815552 -172.69132324 26.52815552 -173.92645264 26.61877441 C-174.65839844 26.66518066 -175.39034424 26.71158691 -176.14447021 26.75939941 C-178.17006189 27.14888544 -178.17006189 27.14888544 -179.36029053 28.97839355 C-180.52566072 31.36871447 -181.26931893 33.75652969 -182.03192139 36.30627441 C-182.45409612 37.61040807 -182.87875059 38.91374057 -183.30535889 40.21643066 C-185.34856336 46.54227991 -187.21065461 52.91315858 -189.03192139 59.30627441 C-175.98496827 61.28660544 -163.10774676 61.61783887 -149.92425537 61.5670166 C-146.54785903 61.5561242 -143.17197527 61.56706173 -139.79559326 61.57971191 C-137.64650355 61.57839312 -135.49741415 61.57583655 -133.34832764 61.57189941 C-132.34016495 61.57594788 -131.33200226 61.57999634 -130.29328918 61.58416748 C-129.36729416 61.57786316 -128.44129913 61.57155884 -127.48724365 61.56506348 C-126.67248062 61.56347229 -125.85771759 61.5618811 -125.01826477 61.5602417 C-122.80032182 61.48248733 -122.80032182 61.48248733 -121.03192139 59.30627441 C-121.95875732 59.02912598 -122.88559326 58.75197754 -123.84051514 58.46643066 C-125.0380542 58.1042041 -126.23559326 57.74197754 -127.46942139 57.36877441 C-128.66438232 57.00912598 -129.85934326 56.64947754 -131.09051514 56.27893066 C-134.03192139 55.30627441 -134.03192139 55.30627441 -135.03192139 54.30627441 C-135.48651997 51.6516432 -135.73435376 48.98438304 -136.03192139 46.30627441 C-135.37192139 46.30627441 -134.71192139 46.30627441 -134.03192139 46.30627441 C-133.70192139 45.64627441 -133.37192139 44.98627441 -133.03192139 44.30627441 C-132.04192139 43.97627441 -131.05192139 43.64627441 -130.03192139 43.30627441 C-130.03192139 42.64627441 -130.03192139 41.98627441 -130.03192139 41.30627441 C-127.09089909 40.4602269 -124.46425871 40.17104921 -121.40692139 40.18127441 C-120.63090576 40.17869629 -119.85489014 40.17611816 -119.05535889 40.17346191 C-117.03192139 40.30627441 -117.03192139 40.30627441 -115.03192139 41.30627441 C-114.68817139 43.70471191 -114.68817139 43.70471191 -114.53192139 46.68127441 C-114.32731468 50.55857156 -114.23716149 51.99841425 -112.03192139 55.30627441 C-107.32378401 51.31579282 -105.84766428 47.84093032 -104.34442139 41.93127441 C-104.04568115 40.83686035 -104.04568115 40.83686035 -103.74090576 39.72033691 C-103.34896029 38.28106175 -102.9635183 36.83999707 -102.58514404 35.39709473 C-101.77976862 32.35330163 -100.90582728 29.33102631 -100.03192139 26.30627441 C-122.81637343 24.38469412 -146.23692689 24.53829315 -169.03192139 26.30627441 Z M33.63995361 98.66564941 C31.80744809 100.4639025 30.82788964 101.88835281 29.96807861 104.30627441 C31.2395875 108.45987012 32.39291334 109.9679419 36.15557861 112.18127441 C45.5481023 114.95283878 53.2862844 112.5390353 61.96807861 108.30627441 C66.67996995 104.82826624 69.11352669 100.96578854 70.53057861 95.30627441 C71.23696457 90.50284994 70.49311346 86.88137896 68.96807861 82.30627441 C58.76677992 78.3573846 41.30868471 92.72670729 33.63995361 98.66564941 Z M-126.34442139 82.55627441 C-128.99365289 86.87354058 -128.63449575 91.36656597 -128.03192139 96.30627441 C-125.99991576 102.36664208 -122.81464681 106.60680127 -117.15692139 109.55627441 C-110.25738942 112.64561708 -103.60265904 114.32900998 -96.03192139 113.30627441 C-92.69507629 111.63785187 -90.75971466 110.31885636 -88.59442139 107.30627441 C-87.8993113 104.8347719 -88.04110808 103.66898308 -89.03192139 101.30627441 C-90.38636439 99.53436533 -90.38636439 99.53436533 -92.03192139 98.30627441 C-92.69192139 98.30627441 -93.35192139 98.30627441 -94.03192139 98.30627441 C-94.03192139 97.64627441 -94.03192139 96.98627441 -94.03192139 96.30627441 C-100.30377366 91.45518868 -118.44057838 78.28392684 -126.34442139 82.55627441 Z M-211.03192139 85.30627441 C-211.75614492 90.46005117 -211.62942838 94.99175903 -209.46942139 99.74377441 C-203.49338071 106.02627872 -196.57672692 107.9362693 -188.03192139 108.30627441 C-184.93286603 107.79944424 -183.69710246 107.14228804 -181.03192139 105.30627441 C-179.79508034 102.87527767 -179.79508034 102.87527767 -180.03192139 100.30627441 C-180.69192139 99.31627441 -181.35192139 98.32627441 -182.03192139 97.30627441 C-182.69192139 97.30627441 -183.35192139 97.30627441 -184.03192139 97.30627441 C-184.03192139 96.64627441 -184.03192139 95.98627441 -184.03192139 95.30627441 C-187.52573948 92.71366547 -191.30526695 90.54707566 -195.03192139 88.30627441 C-196.29842529 87.52896973 -196.29842529 87.52896973 -197.59051514 86.73596191 C-198.3549292 86.28479004 -199.11934326 85.83361816 -199.90692139 85.36877441 C-200.58496826 84.96787598 -201.26301514 84.56697754 -201.96160889 84.15393066 C-205.66015753 82.63961924 -208.15721384 82.43156686 -211.03192139 85.30627441 Z M138.09307861 87.80627441 C137.28822021 88.25535156 136.48336182 88.70442871 135.65411377 89.16711426 C130.05661977 92.4034336 125.5142302 95.78661237 121.96807861 101.30627441 C123.23246286 104.13357808 123.88378535 105.2451618 126.46807861 107.11877441 C133.13002441 109.37907745 139.02193402 107.99688749 145.34307861 105.18127441 C150.14441855 102.53902759 152.07538472 100.46816685 153.96807861 95.30627441 C154.57457785 90.51812252 154.68991477 87.38902865 151.96807861 83.30627441 C146.82362735 82.141493 142.41438229 85.3651045 138.09307861 87.80627441 Z M-169.95062256 111.11975098 C-171.54978513 114.35346062 -171.40062073 116.74218077 -171.03192139 120.30627441 C-169.13864643 125.56537151 -166.43408924 128.09636036 -162.03192139 131.30627441 C-159.03176227 132.30632745 -157.05768383 132.42203027 -153.92645264 132.40393066 C-152.4520874 132.39909668 -152.4520874 132.39909668 -150.94793701 132.39416504 C-149.92377686 132.38578613 -148.8996167 132.37740723 -147.84442139 132.36877441 C-146.80865967 132.3642627 -145.77289795 132.35975098 -144.70574951 132.35510254 C-142.14774872 132.34331452 -139.58986406 132.32685957 -137.03192139 132.30627441 C-136.94563477 131.49134521 -136.85934814 130.67641602 -136.77044678 129.83679199 C-136.56463623 127.89302572 -136.35882568 125.94925944 -136.15301514 124.00549316 C-135.99090965 119.05343191 -136.50137166 114.22616883 -137.03192139 109.30627441 C-141.39180211 109.20736778 -145.75108812 109.13479066 -150.11175537 109.08654785 C-151.594944 109.06643682 -153.07805338 109.03914367 -154.56097412 109.0045166 C-156.69341574 108.95597089 -158.82480916 108.93330246 -160.95770264 108.91564941 C-162.88223267 108.88422852 -162.88223267 108.88422852 -164.84564209 108.85217285 C-168.07769579 108.99989665 -168.07769579 108.99989665 -169.95062256 111.11975098 Z M79.96807861 109.30627441 C79.21640948 116.99746037 78.83117017 124.57855334 78.96807861 132.30627441 C82.69709675 132.39364177 86.42585027 132.44678923 90.15557861 132.49377441 C91.7382251 132.53147949 91.7382251 132.53147949 93.35284424 132.56994629 C94.37442627 132.57961426 95.3960083 132.58928223 96.44854736 132.59924316 C97.3859375 132.61495361 98.32332764 132.63066406 99.28912354 132.64685059 C103.50123925 132.11136335 106.23958251 129.81452751 109.65557861 127.43127441 C113.24167246 122.58520164 113.39010225 117.19818274 113.96807861 111.30627441 C110.24267199 108.82267 108.33744888 109.07468772 103.89385986 109.11096191 C102.86811104 109.11520676 102.86811104 109.11520676 101.82164001 109.11953735 C99.64110697 109.13071758 97.46098717 109.1558175 95.28057861 109.18127441 C93.80076684 109.19130704 92.32094863 109.2004324 90.84112549 109.20861816 C87.21664261 109.2306496 83.59240095 109.2651644 79.96807861 109.30627441 Z M-78.03192139 117.30627441 C-78.6109519 125.26794399 -76.5194816 131.32375232 -71.65692139 137.68127441 C-66.97323739 142.36495841 -62.76307265 143.68115024 -56.21966553 143.69445801 C-55.56679062 143.69971497 -54.91391571 143.70497192 -54.24125671 143.71038818 C-52.09961469 143.72350856 -49.95872622 143.71487817 -47.81707764 143.70471191 C-46.31784422 143.7067352 -44.81861177 143.70964876 -43.31938171 143.71340942 C-40.18318272 143.71782218 -37.04724079 143.71143671 -33.91107178 143.6973877 C-29.90526092 143.68031098 -25.90005383 143.69013363 -21.89426517 143.70810509 C-18.79973361 143.71898412 -15.70534341 143.71547755 -12.61080742 143.70772171 C-11.1345252 143.70573029 -9.65822985 143.70814153 -8.18196297 143.71516037 C-6.11215725 143.72284167 -4.04330696 143.71107893 -1.97357178 143.69445801 C-0.79920059 143.69207123 0.37517059 143.68968445 1.58512878 143.68722534 C5.60323045 143.23475054 8.33999185 142.05247499 11.96807861 140.30627441 C11.96807861 139.64627441 11.96807861 138.98627441 11.96807861 138.30627441 C12.58167236 138.06006348 13.19526611 137.81385254 13.82745361 137.56018066 C17.65948061 135.31550791 18.72603765 131.41456374 19.96807861 127.30627441 C20.40640281 124.23800504 20.64532579 121.3447347 19.96807861 118.30627441 C17.91313787 115.57892187 16.267307 114.89622093 12.96807861 114.30627441 C10.30000365 114.20694506 7.65809168 114.15940352 4.99005127 114.16101074 C4.18955856 114.15765213 3.38906586 114.15429352 2.5643158 114.15083313 C-0.07975826 114.1413408 -2.72376886 114.13938087 -5.36785889 114.13830566 C-7.20864895 114.13509187 -9.04943875 114.1317277 -10.89022827 114.1282196 C-14.74866325 114.12223262 -18.60707584 114.12037926 -22.46551514 114.12097168 C-27.40400715 114.12107327 -32.34235529 114.10742216 -37.28081322 114.09019947 C-41.08298397 114.07906826 -44.88512007 114.07705282 -48.68730545 114.07758141 C-50.50772218 114.07640294 -52.32813984 114.07198866 -54.1485405 114.06424904 C-56.69749715 114.05442667 -59.24614308 114.05733605 -61.79510498 114.06335449 C-62.54336044 114.05773499 -63.29161591 114.05211548 -64.06254578 114.04632568 C-69.24256844 114.07732774 -73.4079976 114.99431252 -78.03192139 117.30627441 Z M-195.03192139 128.30627441 C-196.68028469 130.05871689 -196.68028469 130.05871689 -198.03192139 132.30627441 C-197.81474787 134.5142797 -197.81474787 134.5142797 -197.03192139 136.30627441 C-195.14012935 136.98775671 -195.14012935 136.98775671 -193.03192139 137.30627441 C-190.74463405 135.4674356 -190.74463405 135.4674356 -190.90692139 132.68127441 C-190.94817139 131.89752441 -190.98942139 131.11377441 -191.03192139 130.30627441 C-192.35192139 129.64627441 -193.67192139 128.98627441 -195.03192139 128.30627441 Z M135.96807861 128.30627441 C134.30186436 129.47079452 134.30186436 129.47079452 132.96807861 131.30627441 C133.19851725 133.96093491 133.19851725 133.96093491 133.96807861 136.30627441 C135.85987065 136.98775671 135.85987065 136.98775671 137.96807861 137.30627441 C140.25536595 135.4674356 140.25536595 135.4674356 140.09307861 132.68127441 C140.05182861 131.89752441 140.01057861 131.11377441 139.96807861 130.30627441 C138.64807861 129.64627441 137.32807861 128.98627441 135.96807861 128.30627441 Z M-109.03192139 138.30627441 C-111.19614488 141.55260966 -111.40761994 142.54928885 -111.03192139 146.30627441 C-110.04192139 147.79127441 -110.04192139 147.79127441 -109.03192139 149.30627441 C-106.57482764 149.88977946 -106.57482764 149.88977946 -104.03192139 149.30627441 C-102.04158498 147.65253945 -102.04158498 147.65253945 -101.03192139 145.30627441 C-101.18585965 142.76629313 -101.82363199 141.58399361 -103.34442139 139.55627441 C-105.21761998 137.90945605 -105.21761998 137.90945605 -109.03192139 138.30627441 Z M45.96807861 138.30627441 C43.62247806 141.13535113 43.62247806 141.13535113 44.28057861 144.36877441 C44.82814121 147.21941672 44.82814121 147.21941672 45.96807861 149.30627441 C48.38453643 149.47314889 48.38453643 149.47314889 50.96807861 149.30627441 C53.26635173 147.4268927 53.26635173 147.4268927 53.28057861 144.36877441 C53.2145507 141.35953397 53.2145507 141.35953397 51.71807861 139.43127441 C49.75402873 137.94576935 49.75402873 137.94576935 45.96807861 138.30627441 Z M-180.03192139 140.30627441 C-180.36192139 140.96627441 -180.69192139 141.62627441 -181.03192139 142.30627441 C-178.32567769 143.20835565 -176.79341153 143.42855041 -174.01947021 143.4197998 C-173.21886673 143.41972427 -172.41826324 143.41964874 -171.59339905 143.41957092 C-170.73393173 143.41440964 -169.87446442 143.40924835 -168.98895264 143.40393066 C-167.66355721 143.40180824 -167.66355721 143.40180824 -166.31138611 143.39964294 C-163.48903011 143.3940451 -160.66675341 143.38149303 -157.84442139 143.36877441 C-155.93101107 143.36375913 -154.01759952 143.35919628 -152.10418701 143.35510254 C-147.41340124 143.34407638 -142.72267476 143.32681325 -138.03192139 143.30627441 C-137.70192139 142.31627441 -137.37192139 141.32627441 -137.03192139 140.30627441 C-151.22192139 140.30627441 -165.41192139 140.30627441 -180.03192139 140.30627441 Z M78.96807861 140.30627441 C79.29807861 141.29627441 79.62807861 142.28627441 79.96807861 143.30627441 C93.82807861 143.30627441 107.68807861 143.30627441 121.96807861 143.30627441 C121.96807861 142.31627441 121.96807861 141.32627441 121.96807861 140.30627441 C107.77807861 140.30627441 93.58807861 140.30627441 78.96807861 140.30627441 Z M-88.03192139 153.30627441 C-89.02192139 154.79127441 -89.02192139 154.79127441 -90.03192139 156.30627441 C-49.77192139 156.30627441 -9.51192139 156.30627441 31.96807861 156.30627441 C30.97807861 154.82127441 30.97807861 154.82127441 29.96807861 153.30627441 C27.80736906 152.85125015 27.80736906 152.85125015 25.2612915 152.92532349 C24.26856232 152.91686401 23.27583313 152.90840454 22.25302124 152.89968872 C21.15996674 152.90576141 20.06691223 152.91183411 18.94073486 152.91809082 C17.79273407 152.91283386 16.64473328 152.9075769 15.46194458 152.90216064 C11.65135255 152.88891166 7.8411752 152.89771634 4.03057861 152.90783691 C1.39263834 152.9058176 -1.24530139 152.90290735 -3.88323975 152.8991394 C-9.41819792 152.89367755 -14.95303611 152.90088464 -20.48797607 152.91516113 C-26.89212758 152.9314886 -33.29599258 152.92620039 -39.70013714 152.90968192 C-45.85431923 152.89444198 -52.00837404 152.89603666 -58.16256714 152.90482712 C-60.78453613 152.90683421 -63.40651239 152.90435213 -66.0284729 152.89738846 C-69.68737402 152.88980437 -73.3457182 152.90133607 -77.00457764 152.91809082 C-78.64415939 152.90898178 -78.64415939 152.90898178 -80.31686401 152.89968872 C-81.80595779 152.91237793 -81.80595779 152.91237793 -83.32513428 152.92532349 C-84.62373131 152.9270201 -84.62373131 152.9270201 -85.94856262 152.92875099 C-86.97982521 153.11562509 -86.97982521 153.11562509 -88.03192139 153.30627441 Z " fill="#060505" transform="translate(317.03192138671875,134.6937255859375)"/>
<path d="M0 0 C1.53764431 0.07794566 3.07544716 0.15283624 4.61340332 0.22436523 C26.68584178 1.28316154 26.68584178 1.28316154 32.34307861 6.49377441 C33.27991543 8.11522275 34.21147428 9.73979733 35.12823486 11.37268066 C37.50124669 15.75705038 37.50124669 15.75705038 41.53057861 18.36877441 C43.8984376 18.39915795 43.8984376 18.39915795 45.85113525 17.82214355 C48.03469334 17.29004135 50.0339401 17.10184481 52.27667236 16.98986816 C53.10747314 16.94797363 53.93827393 16.9060791 54.79425049 16.86291504 C55.65598877 16.82359863 56.51772705 16.78428223 57.40557861 16.74377441 C58.23251221 16.70059082 59.0594458 16.65740723 59.91143799 16.61291504 C71.97122589 16.03160927 83.98664736 16.29722745 96.03570557 16.94104004 C97.54086844 17.01830343 99.04644425 17.08788026 100.55230713 17.15002441 C110.06091821 17.54420628 117.65813415 17.97447761 125.34307861 24.24377441 C127.17133355 26.56425183 128.18418497 28.45575207 128.96807861 31.30627441 C128.65557861 33.43127441 128.65557861 33.43127441 127.96807861 35.30627441 C127.63807861 36.29627441 127.30807861 37.28627441 126.96807861 38.30627441 C127.62807861 38.30627441 128.28807861 38.30627441 128.96807861 38.30627441 C128.78245361 38.80127441 128.59682861 39.29627441 128.40557861 39.80627441 C127.76668566 43.45709131 128.4190257 46.64592165 128.96807861 50.30627441 C126.38646296 47.72465876 125.98189434 45.49064663 124.96807861 41.99377441 C124.03175253 38.78612606 123.11629973 35.66601941 121.84307861 32.57580566 C120.96807861 30.30627441 120.96807861 30.30627441 120.96807861 27.30627441 C105.15299834 26.61714819 89.36010805 26.20005481 73.53057861 26.18127441 C72.80462494 26.17877686 72.07867126 26.1762793 71.33071899 26.17370605 C61.83166157 26.14680074 52.43646082 26.48796163 42.96807861 27.30627441 C43.29807861 28.62627441 43.62807861 29.94627441 43.96807861 31.30627441 C42.97807861 31.63627441 41.98807861 31.96627441 40.96807861 32.30627441 C40.96807861 31.64627441 40.96807861 30.98627441 40.96807861 30.30627441 C39.97807861 30.30627441 38.98807861 30.30627441 37.96807861 30.30627441 C37.96807861 32.28627441 37.96807861 34.26627441 37.96807861 36.30627441 C38.95807861 36.63627441 39.94807861 36.96627441 40.96807861 37.30627441 C40.63807861 39.28627441 40.30807861 41.26627441 39.96807861 43.30627441 C38.20871318 40.08848764 37.21128897 36.89292869 36.21807861 33.36877441 C34.11442625 26.38559759 31.49174376 19.70927737 27.96807861 13.30627441 C25.04969847 11.84708434 22.03929787 11.94880776 18.83135986 11.77111816 C18.09719345 11.72795975 17.36302704 11.68480133 16.60661316 11.64033508 C14.1649422 11.50081057 11.72293182 11.37078008 9.28057861 11.24377441 C8.43741089 11.19958374 7.59424316 11.15539307 6.7255249 11.10986328 C-23.94775305 9.54223654 -54.40951148 10.05941596 -85.03192139 12.30627441 C-87.89906216 18.46200806 -90.62047655 24.57610503 -92.84442139 30.99377441 C-93.47283936 32.7939502 -93.47283936 32.7939502 -94.11395264 34.63049316 C-94.56834717 35.95500488 -94.56834717 35.95500488 -95.03192139 37.30627441 C-95.36192139 37.30627441 -95.69192139 37.30627441 -96.03192139 37.30627441 C-96.69192139 34.99627441 -97.35192139 32.68627441 -98.03192139 30.30627441 C-100.32571888 33.74697065 -101.03192139 35.02917742 -101.03192139 39.30627441 C-102.02192139 39.30627441 -103.01192139 39.30627441 -104.03192139 39.30627441 C-102.80601829 34.92804905 -101.47626052 30.61873183 -100.03192139 26.30627441 C-139.04369166 26.12064338 -139.04369166 26.12064338 -178.03192139 27.30627441 C-178.30004639 28.31689941 -178.56817139 29.32752441 -178.84442139 30.36877441 C-179.58268432 32.97444679 -180.43872176 35.24308363 -181.52801514 37.75158691 C-183.39265923 42.15892749 -184.47768242 46.58552166 -185.58074951 51.22814941 C-186.00772591 52.93605501 -186.51375019 54.62379143 -187.03192139 56.30627441 C-188.02192139 56.80127441 -188.02192139 56.80127441 -189.03192139 57.30627441 C-189.36192139 56.64627441 -189.69192139 55.98627441 -190.03192139 55.30627441 C-193.10645699 56.08266762 -193.10645699 56.08266762 -195.03192139 58.30627441 C-193.49621515 46.63490699 -189.28952618 33.67092576 -182.03192139 24.30627441 C-181.47504639 23.56377441 -180.91817139 22.82127441 -180.34442139 22.05627441 C-173.54639833 16.91182453 -162.42439316 17.67500282 -154.28192139 17.18127441 C-153.00059326 17.09490723 -151.71926514 17.00854004 -150.39910889 16.91955566 C-138.66089252 16.16954792 -127.02511831 16.14861996 -115.28192139 16.74377441 C-114.41438232 16.78309082 -113.54684326 16.82240723 -112.65301514 16.86291504 C-107.07820493 17.13455122 -101.57339221 17.63883005 -96.03192139 18.30627441 C-95.66067139 17.25439941 -95.66067139 17.25439941 -95.28192139 16.18127441 C-92.92005141 10.74897346 -90.02925909 6.56035478 -85.03192139 3.30627441 C-80.06637623 1.6327612 -75.33853753 0.92438343 -70.13348389 0.67346191 C-69.01885773 0.61084671 -69.01885773 0.61084671 -67.88171387 0.54696655 C-65.47384587 0.41532392 -63.06560245 0.29702653 -60.65692139 0.18127441 C-59.82702698 0.1395813 -58.99713257 0.09788818 -58.14208984 0.05493164 C-38.70441157 -0.91477814 -19.43829443 -0.98643135 0 0 Z " fill="#100F10" transform="translate(317.03192138671875,134.6937255859375)"/>
<path d="M0 0 C0.99 0.495 0.99 0.495 2 1 C0.7625 2.2065625 0.7625 2.2065625 -0.5 3.4375 C-3.11638731 5.52263018 -3.11638731 5.52263018 -3 7 C1.95 7.33 6.9 7.66 12 8 C12 8.33 12 8.66 12 9 C7.05 9.33 2.1 9.66 -3 10 C-6.87791094 18.19901169 -10.06043251 26.43147348 -13 35 C-13.33 35 -13.66 35 -14 35 C-14.66 32.69 -15.32 30.38 -16 28 C-18.29379749 31.44069624 -19 32.72290301 -19 37 C-19.99 37 -20.98 37 -22 37 C-20.7740969 32.62177464 -19.44433914 28.31245742 -18 24 C-57.01177027 23.81436896 -57.01177027 23.81436896 -96 25 C-96.268125 26.010625 -96.53625 27.02125 -96.8125 28.0625 C-97.55076294 30.66817237 -98.40680037 32.93680921 -99.49609375 35.4453125 C-101.36073784 39.85265308 -102.44576103 44.27924724 -103.54882812 48.921875 C-103.97580452 50.6297806 -104.48182881 52.31751702 -105 54 C-105.99 54.495 -105.99 54.495 -107 55 C-107.33 54.34 -107.66 53.68 -108 53 C-111.0745356 53.7763932 -111.0745356 53.7763932 -113 56 C-111.46429376 44.32863258 -107.25760479 31.36465135 -100 22 C-99.443125 21.2575 -98.88625 20.515 -98.3125 19.75 C-91.51447694 14.60555012 -80.39247177 15.36872841 -72.25 14.875 C-70.32800781 14.74544922 -70.32800781 14.74544922 -68.3671875 14.61328125 C-56.62897113 13.86327351 -44.99319692 13.84234554 -33.25 14.4375 C-32.38246094 14.47681641 -31.51492187 14.51613281 -30.62109375 14.55664062 C-25.04628354 14.8282768 -19.54147083 15.33255564 -14 16 C-13.62875 14.948125 -13.62875 14.948125 -13.25 13.875 C-10.86424124 8.38775486 -7.93490036 4.41646948 -3 1 C-2.01 0.67 -1.02 0.34 0 0 Z " fill="#141313" transform="translate(235,137)"/>
<path d="M0 0 C0.33 0.66 0.66 1.32 1 2 C1.99 2.33 2.98 2.66 4 3 C3.04547111 6.59783965 2.07137697 9.83930537 0.5546875 13.25390625 C-1.37525246 17.67572715 -2.43678657 22.24147521 -3.54882812 26.921875 C-3.97580452 28.6297806 -4.48182881 30.31751702 -5 32 C-5.99 32.495 -5.99 32.495 -7 33 C-7.33 32.34 -7.66 31.68 -8 31 C-11.0745356 31.7763932 -11.0745356 31.7763932 -13 34 C-11.44992149 22.2194033 -7.15843542 9.54458056 0 0 Z " fill="#262425" transform="translate(135,159)"/>
<path d="M0 0 C0.66 0.33 1.32 0.66 2 1 C1.175 1.804375 0.35 2.60875 -0.5 3.4375 C-3.11638731 5.52263018 -3.11638731 5.52263018 -3 7 C1.95 7.33 6.9 7.66 12 8 C12 8.33 12 8.66 12 9 C10.44539063 8.9690625 10.44539063 8.9690625 8.859375 8.9375 C1.39509966 8.65623856 1.39509966 8.65623856 -4.88671875 11.84765625 C-5.86157129 13.90245696 -6.54869287 15.77388955 -7 18 C-7.4125 17.525625 -7.825 17.05125 -8.25 16.5625 C-10.182185 14.83733482 -11.48192275 14.43415125 -14 14 C-6.67924528 2.22641509 -6.67924528 2.22641509 0 0 Z " fill="#373436" transform="translate(235,137)"/>
<path d="M0 0 C3.46865468 2.19681463 4.93033148 4.01305369 6 8 C5.6875 10.125 5.6875 10.125 5 12 C4.67 12.99 4.34 13.98 4 15 C4.66 15 5.32 15 6 15 C5.814375 15.495 5.62875 15.99 5.4375 16.5 C4.79860704 20.15081689 5.45094709 23.33964724 6 27 C3.41838434 24.41838434 3.01381573 22.18437221 2 18.6875 C1.06367391 15.47985164 0.14822111 12.359745 -1.125 9.26953125 C-2 7 -2 7 -2 4 C-3.98 4 -5.96 4 -8 4 C-8 3.67 -8 3.34 -8 3 C-6.865625 2.87625 -5.73125 2.7525 -4.5625 2.625 C-3.386875 2.41875 -2.21125 2.2125 -1 2 C-0.67 1.34 -0.34 0.68 0 0 Z " fill="#313030" transform="translate(440,158)"/>
<path d="M0 0 C0.66 0 1.32 0 2 0 C2.33 1.65 2.66 3.3 3 5 C3.81726563 4.82597656 4.63453125 4.65195313 5.4765625 4.47265625 C9.55472767 3.92558531 13.28981031 4.11615144 17.375 4.4375 C18.11105469 4.48970703 18.84710938 4.54191406 19.60546875 4.59570312 C21.40410629 4.72417723 23.20212909 4.86120949 25 5 C25 5.33 25 5.66 25 6 C20.38 6.33 15.76 6.66 11 7 C11.33 8.32 11.66 9.64 12 11 C11.01 11.33 10.02 11.66 9 12 C9 11.34 9 10.68 9 10 C8.01 10 7.02 10 6 10 C6 11.98 6 13.96 6 16 C6.99 16.33 7.98 16.66 9 17 C8.67 18.98 8.34 20.96 8 23 C6.17430832 19.65833219 5.08711908 16.26854753 4 12.625 C2.73112629 8.39211662 1.41641988 4.1860266 0 0 Z " fill="#242223" transform="translate(349,155)"/>
<path d="M0 0 C1.98 0.99 3.96 1.98 6 3 C6 7.29 6 11.58 6 16 C5.34 16 4.68 16 4 16 C3.34 14.35 2.68 12.7 2 11 C0.68 11.33 -0.64 11.66 -2 12 C-3.06106444 8.81680668 -2.96156637 7.98060942 -2.125 4.875 C-1.94195312 4.17117187 -1.75890625 3.46734375 -1.5703125 2.7421875 C-1 1 -1 1 0 0 Z " fill="#1A1718" transform="translate(101,216)"/>
<path d="M0 0 C3 2 3 2 3.6875 4.125 C3.8421875 5.053125 3.8421875 5.053125 4 6 C1.03 5.505 1.03 5.505 -2 5 C-1.67 5.99 -1.34 6.98 -1 8 C-1.99 8.495 -1.99 8.495 -3 9 C-3.66 6.69 -4.32 4.38 -5 2 C-3.68 2.33 -2.36 2.66 -1 3 C-0.67 2.01 -0.34 1.02 0 0 Z " fill="#302D2E" transform="translate(351,146)"/>
<path d="M0 0 C1.5625 1.25 1.5625 1.25 3 3 C2.6875 5.1875 2.6875 5.1875 2 7 C0.68 7 -0.64 7 -2 7 C-2 6.01 -2 5.02 -2 4 C-3.98 4 -5.96 4 -8 4 C-8 3.67 -8 3.34 -8 3 C-6.865625 2.87625 -5.73125 2.7525 -4.5625 2.625 C-3.386875 2.41875 -2.21125 2.2125 -1 2 C-0.67 1.34 -0.34 0.68 0 0 Z " fill="#1F1D1E" transform="translate(440,158)"/>
<path d="M0 0 C0.33 0.66 0.66 1.32 1 2 C1.99 2.33 2.98 2.66 4 3 C3.34 5.31 2.68 7.62 2 10 C1.71125 9.360625 1.4225 8.72125 1.125 8.0625 C0.17176549 5.84793921 0.17176549 5.84793921 -2 5 C-1.125 1.125 -1.125 1.125 0 0 Z " fill="#383536" transform="translate(135,159)"/>
<path d="M0 0 C-0.33 2.31 -0.66 4.62 -1 7 C-1.61875 6.2884375 -1.61875 6.2884375 -2.25 5.5625 C-4.182185 3.83733482 -5.48192275 3.43415125 -8 3 C-5.45189726 -0.82215411 -4.39145359 -1.46381786 0 0 Z " fill="#221F20" transform="translate(229,148)"/>
<path d="M0 0 C0.93423645 3.01031744 1.04449911 3.86650268 0 7 C-0.66 7 -1.32 7 -2 7 C-2.33 7.99 -2.66 8.98 -3 10 C-4.32 9.67 -5.64 9.34 -7 9 C-6.67 7.68 -6.34 6.36 -6 5 C-5.67 5.66 -5.34 6.32 -5 7 C-2.47411298 4.63707344 -1.11179163 3.33537489 0 0 Z " fill="#312F30" transform="translate(210,182)"/>
<path d="M0 0 C0.79921875 0.01804688 1.5984375 0.03609375 2.421875 0.0546875 C3.02515625 0.07789063 3.6284375 0.10109375 4.25 0.125 C4.25 0.455 4.25 0.785 4.25 1.125 C3.156875 1.228125 2.06375 1.33125 0.9375 1.4375 C-2.60559629 2.09807727 -3.68243723 2.3277092 -5.75 5.125 C-6.74 4.795 -7.73 4.465 -8.75 4.125 C-8.75 3.465 -8.75 2.805 -8.75 2.125 C-5.68753253 0.34090198 -3.52920727 -0.10380021 0 0 Z " fill="#474246" transform="translate(195.75,173.875)"/>
<path d="M0 0 C0.66 0 1.32 0 2 0 C2.05399736 1.45792884 2.09279177 2.91642712 2.125 4.375 C2.14820313 5.18710937 2.17140625 5.99921875 2.1953125 6.8359375 C2 9 2 9 0 11 C-3.125 10.625 -3.125 10.625 -6 10 C-6 9.67 -6 9.34 -6 9 C-4.02 8.34 -2.04 7.68 0 7 C0 4.69 0 2.38 0 0 Z " fill="#4D494C" transform="translate(369,275)"/>
<path d="M0 0 C0.66 0 1.32 0 2 0 C2 1.65 2 3.3 2 5 C2.99 5.33 3.98 5.66 5 6 C4.67 7.98 4.34 9.96 4 12 C1.78600697 8.20458337 0.99019802 4.24370579 0 0 Z " fill="#474344" transform="translate(353,166)"/>
</svg>
